<?xml version="1.0" encoding="UTF-8"?>
<svg xmlns="http://www.w3.org/2000/svg" xmlns:xlink="http://www.w3.org/1999/xlink" width="1008pt" height="468.8pt" viewBox="0 0 1008 468.8" version="1.1">
<g id="surface1">
<path style=" stroke:none;fill-rule:nonzero;fill:rgb(17.651367%,54.881287%,100%);fill-opacity:1;" d="M 0 468.800781 L 1008 468.800781 L 1008 0 L 0 0 Z M 0 468.800781 "/>
<path style=" stroke:none;fill-rule:evenodd;fill:rgb(100%,100%,100%);fill-opacity:1;" d="M 416.101563 267.601563 C 397.699219 286 368 286 349.898438 267.601563 C 331.5 249.199219 331.5 219.5 349.898438 201.398438 C 368.300781 183 398 183 416.101563 201.398438 C 434.300781 219.601563 434.300781 249.199219 416.101563 267.601563 M 438.199219 179.101563 C 423 163.898438 403 156.199219 382.898438 156.199219 C 363 156.199219 342.898438 163.800781 327.601563 179.101563 C 297.101563 209.601563 297.101563 259 327.601563 289.699219 C 358.101563 320.199219 407.5 320.199219 438.199219 289.699219 C 468.601563 259.199219 468.601563 209.601563 438.199219 179.101563 "/>
<path style=" stroke:none;fill-rule:evenodd;fill:rgb(100%,100%,100%);fill-opacity:1;" d="M 580.199219 267.601563 C 561.800781 286 532.097656 286 514 267.601563 C 495.601563 249.199219 495.601563 219.5 514 201.398438 C 532.398438 183 562.097656 183 580.199219 201.398438 C 598.398438 219.601563 598.398438 249.199219 580.199219 267.601563 M 602.300781 179.101563 C 587 163.898438 567.097656 156.300781 547 156.300781 C 527.097656 156.300781 507 163.898438 491.699219 179.199219 C 461.199219 209.699219 461.199219 259.101563 491.699219 289.800781 C 522.199219 320.300781 571.597656 320.300781 602.300781 289.800781 C 632.699219 259.199219 632.699219 209.601563 602.300781 179.101563 "/>
<path style=" stroke:none;fill-rule:evenodd;fill:rgb(100%,100%,100%);fill-opacity:1;" d="M 187.5 312.101563 L 195.300781 312.5 L 312.601563 312.5 L 312.199219 304.699219 C 311.199219 291.800781 302 282.398438 289.101563 281.601563 L 281.300781 281.199219 L 211 281.199219 L 304.800781 187.398438 L 304.398438 179.601563 C 303.800781 166.699219 294.199219 157.101563 281.300781 156.5 L 273.5 156.101563 L 156.300781 156.101563 L 156.699219 163.898438 C 157.699219 176.601563 167.101563 186.199219 179.800781 187 L 187.601563 187.398438 L 257.898438 187.398438 L 164.101563 281.199219 L 164.5 289 C 165.300781 302 174.601563 311.398438 187.5 312.101563 "/>
<path style=" stroke:none;fill-rule:evenodd;fill:rgb(100%,100%,100%);fill-opacity:1;" d="M 722.398438 203.101563 C 725.097656 207.800781 725.898438 212.898438 726.300781 218.699219 L 726.699219 226.5 L 726.699219 281.199219 L 727.097656 289 C 727.898438 301.699219 737.300781 311.300781 750.199219 312.101563 L 758 312.5 L 758 226.5 L 758.398438 218.699219 C 758.800781 212.800781 759.597656 207.601563 762.300781 202.898438 C 767.800781 193.5 777.699219 187.5 789.300781 187.5 C 800.898438 187.5 811 193.800781 816.5 203.101563 C 819.199219 207.800781 820 213.101563 820.199219 218.699219 L 820.597656 226.5 L 820.597656 281.199219 L 821 289 C 821.800781 301.898438 831.199219 311.300781 844.097656 312.101563 L 851.898438 312.5 L 851.898438 218.699219 C 851.898438 184.101563 824 156.199219 789.398438 156.199219 C 770.597656 156.199219 754 164.398438 742.5 177.300781 C 731 164.398438 714.398438 156.199219 695.597656 156.199219 C 682.699219 156.199219 670.597656 160.101563 660.597656 166.898438 C 654.5 160.101563 640.898438 156.199219 633.097656 156.199219 L 633.097656 312.5 L 640.898438 312.101563 C 654 311.300781 663.398438 301.898438 664 289 L 664.398438 281.199219 L 664.398438 226.5 L 664.800781 218.699219 C 665.199219 212.800781 666 207.601563 668.699219 203.101563 C 674.199219 193.699219 684.097656 187.5 695.699219 187.5 C 707.300781 187.5 717.097656 193.800781 722.398438 203.101563 "/>
</g>
</svg>
